<svg xmlns="http://www.w3.org/2000/svg" viewBox="0 0 60 60" fill="none">
<path d="M33.5204 30C33.5204 37.1744 27.5975 43 20.2602 43C12.9229 43 7 37.1744 7 30C7 22.8256 12.9229 17 20.2602 17C27.5975 17 33.5204 22.8256 33.5204 30ZM48.0476 30C48.0476 36.7439 45.0715 42.2252 41.4176 42.2252C37.7636 42.2252 34.7875 36.7439 34.7875 30C34.7875 23.2561 37.7636 17.7748 41.4176 17.7748C45.0715 17.7748 48.0476 23.2274 48.0476 30ZM54 30C54 36.0552 52.9687 40.9625 51.6721 40.9625C50.3755 40.9625 49.3442 36.0552 49.3442 30C49.3442 23.9448 50.3755 19.0375 51.6721 19.0375C52.9687 19.0375 54 23.9448 54 30Z" fill="#5F6978"/>
</svg>