<svg xmlns="http://www.w3.org/2000/svg" viewBox="0 0 60 60" fill="none">
<path d="M48.2752 20.8012C48.3024 21.1735 48.3024 21.5458 48.3024 21.9215C48.3024 33.3703 39.0846 46.5742 22.2296 46.5742V46.5673C17.2506 46.5742 12.3749 45.2257 8.18341 42.683C8.9074 42.7654 9.63502 42.8065 10.3645 42.8083C14.4907 42.8117 18.4989 41.5026 21.7451 39.0921C17.8239 39.0217 14.3854 36.6043 13.1842 33.0752C14.5578 33.3257 15.9731 33.2742 17.3213 32.9259C13.0463 32.1092 9.97071 28.5578 9.97071 24.4333C9.97071 24.3955 9.97071 24.3595 9.97071 24.3235C11.2445 24.9943 12.6707 25.3666 14.1296 25.4078C10.1032 22.8634 8.86204 17.7987 11.2935 13.8389C15.9459 19.2519 22.8102 22.5426 30.179 22.8909C29.4405 19.8815 30.4493 16.7281 32.83 14.6127C36.5207 11.3323 42.3254 11.5004 45.7947 14.9884C47.8469 14.6058 49.8139 13.8938 51.6139 12.885C50.9298 14.8906 49.4981 16.5943 47.5856 17.6769C49.402 17.4744 51.1766 17.0146 52.8477 16.3129C51.6175 18.0561 50.0679 19.5744 48.2752 20.8012Z" fill="#5F6978"/>
</svg>